<svg xmlns="http://www.w3.org/2000/svg" width="130.275" height="95.48" viewBox="0 0 130.275 95.48"><defs><style>.a{fill:#336a23;}</style></defs><g transform="translate(-3 -85.587)"><g transform="translate(36.649 94.973)"><g transform="translate(0 0)"><path class="a" d="M196.827,140.685l-11.452-5.09a2.244,2.244,0,0,1-1.332-2.049V130.4a16.69,16.69,0,0,0,6.32-13.075V112.9a4.084,4.084,0,0,0,2.106-3.569v-.43a16.735,16.735,0,0,0-16.716-16.716h-4.213A16.735,16.735,0,0,0,154.824,108.9v3.9a4.133,4.133,0,0,0,1.573,3.312,3.844,3.844,0,0,0,.534.346v.87A16.69,16.69,0,0,0,163.25,130.4v3.145a2.244,2.244,0,0,1-1.331,2.049l-11.452,5.09a10.406,10.406,0,0,0-6.174,9.5v26.121a1.971,1.971,0,1,0,3.942,0V150.186a6.445,6.445,0,0,1,.04-.678l5.277,5.277a4.321,4.321,0,0,1,1.274,3.075v18.447a1.971,1.971,0,1,0,3.942,0V157.86A8.236,8.236,0,0,0,156.338,152l-6.291-6.291a6.437,6.437,0,0,1,2.021-1.42l11.259-5,8.35,8.35v28.674a1.971,1.971,0,1,0,3.942,0V147.633l8.35-8.35,11.259,5a6.434,6.434,0,0,1,2.021,1.42L190.956,152a8.236,8.236,0,0,0-2.428,5.862v18.447a1.971,1.971,0,1,0,3.942,0V157.86a4.32,4.32,0,0,1,1.274-3.075l5.277-5.277a6.426,6.426,0,0,1,.04.677v26.121a1.971,1.971,0,0,0,3.942,0V150.186A10.407,10.407,0,0,0,196.827,140.685Zm-23.181,3.344L166.32,136.7a6.173,6.173,0,0,0,.872-3.156v-.8a16.7,16.7,0,0,0,12.91,0v.8a6.172,6.172,0,0,0,.872,3.157Zm0-13.929a12.789,12.789,0,0,1-12.775-12.774v-.886a11.651,11.651,0,0,0,3.579-2.323,1.971,1.971,0,0,0-2.673-2.9,7.079,7.079,0,0,1-2.927,1.747.317.317,0,0,1-.052.01.4.4,0,0,1-.033-.178v-3.9A12.789,12.789,0,0,1,171.54,96.126h4.213A12.789,12.789,0,0,1,188.528,108.9v.43a.127.127,0,0,1-.089.129c-11.8,2.331-17.721-2.062-19.718-4.059a1.971,1.971,0,1,0-2.787,2.787c6.12,6.12,15.051,6.23,20.488,5.577v3.561A12.789,12.789,0,0,1,173.647,130.1Z" transform="translate(-144.292 -92.184)"/></g></g><g transform="translate(3 85.587)"><g transform="translate(0)"><path class="a" d="M35.539,159.514V155.3a14.607,14.607,0,0,0-6.7-12.272,8.29,8.29,0,1,0-15.824,0,14.606,14.606,0,0,0-6.7,12.272v4.213a14.6,14.6,0,0,0,6.319,12.02v4.334a2.23,2.23,0,0,1-1.239,2.006l-6.817,3.408A8.246,8.246,0,0,0,0,188.7v17.159a1.971,1.971,0,1,0,3.942,0V189.549l3.211,3.211a4.321,4.321,0,0,1,1.274,3.075v10.021a1.971,1.971,0,1,0,3.942,0V195.835a8.237,8.237,0,0,0-2.428-5.862L5.471,185.5c-.022-.022-.045-.04-.067-.06a4.394,4.394,0,0,1,.941-.636l6.817-3.408a6.277,6.277,0,0,0,.977-.61l4.819,4.819v20.249a1.971,1.971,0,0,0,3.942,0V185.608l4.819-4.819a6.248,6.248,0,0,0,.977.61l1.88.94a1.971,1.971,0,1,0,1.763-3.525l-1.88-.94a2.23,2.23,0,0,1-1.24-2.005v-4.334A14.6,14.6,0,0,0,35.539,159.514Zm-14.61-23.308a4.353,4.353,0,0,1,4.348,4.348,4.417,4.417,0,0,1-.069.777,14.609,14.609,0,0,0-8.553,0,4.322,4.322,0,0,1,4.274-5.123Zm0,8.426A10.68,10.68,0,0,1,31.6,155.3v.714a12.372,12.372,0,0,1-13.3-4,1.971,1.971,0,0,0-2.97-.211,12.893,12.893,0,0,1-5.055,3.227A10.678,10.678,0,0,1,20.929,144.633Zm0,37.371-4.554-4.554a6.241,6.241,0,0,0,.206-1.582v-2.406a14.636,14.636,0,0,0,8.7,0v2.406a6.24,6.24,0,0,0,.206,1.582Zm0-11.822a10.68,10.68,0,0,1-10.668-10.668v-.408a15.8,15.8,0,0,0,6.333-3.155,17.783,17.783,0,0,0,3.655,2.661,15.676,15.676,0,0,0,7.532,1.944,16.513,16.513,0,0,0,3.8-.455A10.681,10.681,0,0,1,20.929,170.181Z" transform="translate(0 -132.265)"/></g></g><g transform="translate(93.523 86.954)"><g transform="translate(0 0)"><path class="a" d="M395.9,188.889l-11.03-5.515a2.23,2.23,0,0,1-1.239-2.005v-2.793a12.474,12.474,0,0,0,4.213-9.348v-2.243h.136a1.971,1.971,0,0,0,1.971-1.971V160.8a12.518,12.518,0,0,0-12.5-12.5h-4.213a12.518,12.518,0,0,0-12.5,12.5v4.213a1.971,1.971,0,0,0,1.971,1.971c.016,0,.064,0,.136,0v2.245a12.474,12.474,0,0,0,4.213,9.349v2.793a2.229,2.229,0,0,1-1.24,2.005,1.971,1.971,0,1,0,1.763,3.526,6.272,6.272,0,0,0,.977-.61l4.819,4.819v26.568a1.971,1.971,0,1,0,3.942,0V191.108l4.819-4.819a6.254,6.254,0,0,0,.977.61l10.673,5.337-3.237,3.237a8.237,8.237,0,0,0-2.428,5.862v16.341a1.971,1.971,0,1,0,3.942,0V201.335a4.32,4.32,0,0,1,1.274-3.075l3.066-3.066a4.393,4.393,0,0,1,.144,1.11v21.372a1.971,1.971,0,1,0,3.942,0V196.3A8.244,8.244,0,0,0,395.9,188.889Zm-31.228-26.251V160.8h0a8.571,8.571,0,0,1,8.562-8.562h4.213A8.571,8.571,0,0,1,386,160.8v2.189c-8.567-.462-13.738-3.8-13.788-3.829a1.971,1.971,0,0,0-2.487.246A12.908,12.908,0,0,1,364.667,162.638ZM375.336,187.5l-4.554-4.554a6.241,6.241,0,0,0,.206-1.582v-.42a12.493,12.493,0,0,0,8.7,0v.42a6.229,6.229,0,0,0,.206,1.582Zm0-9.716a8.571,8.571,0,0,1-8.562-8.562V166.05h0a16.677,16.677,0,0,0,4.625-2.823,35.014,35.014,0,0,0,12.5,3.553v2.447A8.571,8.571,0,0,1,375.336,177.789Z" transform="translate(-360.726 -148.298)"/></g></g></g></svg>