<svg xmlns="http://www.w3.org/2000/svg" width="99.738" height="100.326" viewBox="0 0 99.738 100.326"><defs><style>.a{fill:#336a23;}</style></defs><g transform="translate(0 0.001)"><path class="a" d="M91.537,55.164H82.814a191.772,191.772,0,0,0,2.217-20.5,5.415,5.415,0,0,0,4.112-2.808,5.419,5.419,0,0,0-1.081-6.5l9.192-13.587a6.925,6.925,0,0,0,.938-5.614A8.132,8.132,0,0,0,87.556.466a6.918,6.918,0,0,0-4.149,3.892L77.194,19.5a5.408,5.408,0,0,0-6.136,2.671,5.348,5.348,0,0,0-.41,4.11,5.411,5.411,0,0,0,.639,1.383c-5.724,4.978-18.076,16.157-21.733,22.98a25.509,25.509,0,0,0-1.907,4.518H33.957a2.013,2.013,0,0,0,0,4.025H45.1V71.381a7,7,0,0,0,3.436,6.432,6.559,6.559,0,0,0,3.145.791,6.669,6.669,0,0,0,3.588-1.036,6.21,6.21,0,0,0,2.838-5.7c.14-1.4.9-1.382,1.189-1.375a1.582,1.582,0,0,1,1.6,1.456c.022,3.278,3,5.3,5.751,5.3h.011c2.652-.005,5.506-1.95,5.506-6.208V59.189H91.537c4.058,0,4.175,3.187,4.175,3.551v6.619c0,8.786-2.1,15.209-6.415,19.634C84.57,93.841,76.918,96.3,66.557,96.3H33.187c-10.362,0-18.014-2.459-22.745-7.307C6.125,84.567,4.025,78.144,4.025,69.358V62.74c0-.364.117-3.551,4.182-3.551h9.553a2.013,2.013,0,0,0,0-4.026H8.207C2.185,55.163,0,59.694,0,62.74v6.619c0,20.548,11.165,30.967,33.187,30.967H66.557c22.017,0,33.181-10.419,33.181-30.967V62.74C99.738,59.694,97.554,55.164,91.537,55.164Zm-16.04,0c1.821-4.756,3.641-10.27,5.1-14.94-.38,4.566-.974,10.055-1.878,14.94Zm-5.345,0H61.588c3.048-6.378,10.783-16.405,16.159-23.28l1.019.545c-1.575,5.327-4.643,15.318-7.589,22.735ZM87.132,5.886a2.931,2.931,0,0,1,1.786-1.63,4.107,4.107,0,0,1,5.366,2.873,2.934,2.934,0,0,1-.365,2.391L84.6,23.3l-3.778-2.026ZM74.605,24.075a1.394,1.394,0,0,1,1.228-.722,1.342,1.342,0,0,1,.633.156l.839.45.02.011,7.7,4.129a1.385,1.385,0,0,1,.568,1.854,1.382,1.382,0,0,1-1.867.566l0,0L82.573,29.9l-7.408-3.966a1.378,1.378,0,0,1-.56-1.859ZM53.1,52.546C55.771,47.568,64.566,38.921,72.786,31.7,66.838,39.356,59.651,48.964,57.2,55.164H51.9A22.726,22.726,0,0,1,53.1,52.546ZM68.137,71.04c0,1.447-.5,2.181-1.49,2.183h0c-.7,0-1.721-.465-1.725-1.307a.185.185,0,0,0,0-.021,5.589,5.589,0,0,0-5.506-5.429c-2.461-.07-5.063,1.519-5.329,5.229a1.932,1.932,0,0,0,0,.282,2.238,2.238,0,0,1-.984,2.2,2.649,2.649,0,0,1-2.631.1,3.135,3.135,0,0,1-1.343-2.9V59.189h19.01V71.04Zm0,0"/><path class="a" d="M123.7,285.549h.04a2.013,2.013,0,1,0,0-4.025h-.04a2.013,2.013,0,1,0,0,4.025Zm0,0" transform="translate(-97.846 -226.36)"/></g></svg>