<svg xmlns="http://www.w3.org/2000/svg" width="97.48" height="97.48" viewBox="0 0 97.48 97.48"><defs><style>.a{fill:#336a23;}</style></defs><g transform="translate(-0.001)"><g transform="translate(14.589 89.634)"><path class="a" d="M82.947,475.631l-2.866-4.037a1.9,1.9,0,1,0-3.1,2.2l2.866,4.038a1.9,1.9,0,1,0,3.1-2.2Z" transform="translate(-76.624 -470.791)"/></g><g transform="translate(0.001 29.787)"><path class="a" d="M42.878,221.849l-3.119-14.867A28.039,28.039,0,0,0,27.9,189.38L21.24,184.9a6.7,6.7,0,0,0-8.492.867V162.827a6.374,6.374,0,0,0-10.362-4.971A6.343,6.343,0,0,0,0,162.827v29.52A18.442,18.442,0,0,0,3.423,203.08l3.4,4.783a1.9,1.9,0,0,0,3.1-2.2l-3.4-4.783a14.654,14.654,0,0,1-2.719-8.528v-29.52a2.566,2.566,0,1,1,5.131,0v23.421a13.3,13.3,0,0,0,3.431,8.932c.095.114.192.226.3.335,1.264,1.34,2.751,2.919,4.151,4.407l1.96,2.086.02.019,2.939,3.128a1.9,1.9,0,1,0,2.776-2.607c-.035-.037-2.263-2.41-4.809-5.115l-4.365-4.646-.032-.036a3.213,3.213,0,0,1,.062-4.21,2.879,2.879,0,0,1,3.748-.478l6.66,4.478a24.25,24.25,0,0,1,10.256,15.225l3.12,14.867a1.9,1.9,0,1,0,3.727-.782Z" transform="translate(-0.001 -156.451)"/></g><g transform="translate(10.641 84.072)"><path class="a" d="M59.35,442.391l-.012-.017a1.9,1.9,0,0,0-3.1,2.212l.012.017a1.9,1.9,0,0,0,3.1-2.212Z" transform="translate(-55.884 -441.575)"/></g><g transform="translate(54.563 29.787)"><path class="a" d="M327.113,157.858a6.374,6.374,0,0,0-10.362,4.971V185.77a6.7,6.7,0,0,0-8.492-.867l-6.66,4.478a28.038,28.038,0,0,0-11.858,17.6l-3.119,14.867a1.9,1.9,0,1,0,3.727.782l3.119-14.867a24.25,24.25,0,0,1,10.256-15.224l6.66-4.478a2.878,2.878,0,0,1,3.748.478,3.213,3.213,0,0,1,.066,4.206l-.036.04-9.174,9.762a1.9,1.9,0,1,0,2.776,2.607c.026-.027,7.806-8.3,9.07-9.639.1-.109.2-.222.3-.335a13.3,13.3,0,0,0,3.431-8.932V162.829a2.566,2.566,0,1,1,5.132,0v29.52a14.654,14.654,0,0,1-2.719,8.528L308.587,221.14a1.9,1.9,0,1,0,3.1,2.2l14.384-20.263a18.442,18.442,0,0,0,3.422-10.733V162.829A6.345,6.345,0,0,0,327.113,157.858Z" transform="translate(-286.58 -156.454)"/></g><g transform="translate(17.781 10.281)"><path class="a" d="M148.464,80.209l-3.387-.809v-.607a8.516,8.516,0,0,0,3.645-6.982v-4.4a8.514,8.514,0,0,0-14.05-6.476,11.117,11.117,0,0,0-20.6.015A8.514,8.514,0,0,0,100,67.407v4.4a8.515,8.515,0,0,0,3.645,6.982V79.4l-3.387.809a8.919,8.919,0,0,0-6.869,8.7v3.556a1.9,1.9,0,0,0,1.9,1.9h8.749c-.014.231-.023.463-.023.7v6.846a1.9,1.9,0,0,0,1.9,1.9h11.444a1.9,1.9,0,0,0,0-3.808H115.4V96.076a1.9,1.9,0,0,0-3.808,0v3.935h-3.765V95.069a7.883,7.883,0,0,1,6.065-7.69l5.225-1.252,3.5,7.955a1.9,1.9,0,0,0,1.743,1.138h0a1.9,1.9,0,0,0,1.743-1.138l3.493-7.943,5.208,1.244a7.882,7.882,0,0,1,6.07,7.691v4.937h-3.765V96.076a1.9,1.9,0,0,0-3.808,0v3.935H131.14a1.9,1.9,0,1,0,0,3.808h11.635a1.9,1.9,0,0,0,1.9-1.9V95.075c0-.236-.01-.47-.023-.7h8.774a1.9,1.9,0,0,0,1.9-1.9V88.912A8.919,8.919,0,0,0,148.464,80.209ZM140.2,62.694a4.719,4.719,0,0,1,4.7,4.4h-2.647a13.878,13.878,0,0,1-6.384-1.556A4.72,4.72,0,0,1,140.2,62.694Zm-4.713,8.839c0-.093.007-.185.007-.278v-1.7a17.686,17.686,0,0,0,6.762,1.345h2.657v.907a4.713,4.713,0,1,1-9.427,0Zm-18.427-6.412h0a7.313,7.313,0,0,1,14.534-1.162l-3.205-1.883a1.9,1.9,0,0,0-2.424.419,8.2,8.2,0,0,1-6.3,2.941h-2.6v-.315Zm-8.538-2.427a4.72,4.72,0,0,1,4.328,2.846,13.878,13.878,0,0,1-6.384,1.556h-2.647A4.72,4.72,0,0,1,108.522,62.694Zm-4.713,8.21h2.657a17.686,17.686,0,0,0,6.769-1.348V71.81a4.713,4.713,0,0,1-9.427,0V70.9Zm9.2,12.772a11.676,11.676,0,0,0-8.091,6.888H97.2V88.912a5.124,5.124,0,0,1,3.946-5l4.849-1.158a1.9,1.9,0,0,0,1.462-1.852v-.64a8.265,8.265,0,0,0,2.129,0v.543c0,.028,0,.057,0,.085a1.907,1.907,0,0,0,1.547,1.873l2.84.68Zm5.311-2.956a8.935,8.935,0,0,0-1.524-.514l-3.4-.815V78.8a8.59,8.59,0,0,0,1.65-1.508,11.209,11.209,0,0,0,3.275,3.283v.147Zm8.269,2.8-2.228,5.067-2.233-5.08V82.146a11.158,11.158,0,0,0,4.461.007Zm-2.212-4.951a7.321,7.321,0,0,1-7.313-7.313V69.243h2.6a12,12,0,0,0,8.09-3.125l3.926,2.307v3.108A7.32,7.32,0,0,1,124.373,78.567Zm6.02,2.159V80.6a11.2,11.2,0,0,0,3.3-3.291,8.589,8.589,0,0,0,1.636,1.492v.593l-3.4.815A8.966,8.966,0,0,0,130.393,80.726Zm21.132,9.837h-7.743a11.674,11.674,0,0,0-8.1-6.884l-.956-.228,2.855-.684a1.906,1.906,0,0,0,1.555-1.875c0-.015,0-.03,0-.045v-.584a8.265,8.265,0,0,0,2.129,0v.64a1.9,1.9,0,0,0,1.462,1.852l4.849,1.158a5.124,5.124,0,0,1,3.946,5v1.652Z" transform="translate(-93.39 -54)"/></g><g transform="translate(46.837 56.293)"><path class="a" d="M249.25,296.226a1.9,1.9,0,1,0,.558,1.348A1.919,1.919,0,0,0,249.25,296.226Z" transform="translate(-246 -295.67)"/></g><g transform="translate(46.836)"><path class="a" d="M247.9,0a1.9,1.9,0,0,0-1.9,1.9V4.753a1.9,1.9,0,1,0,3.808,0V1.9A1.9,1.9,0,0,0,247.9,0Z" transform="translate(-245.993)"/></g><g transform="translate(36.48 3.658)"><path class="a" d="M196.846,21.765l-2-2a1.9,1.9,0,1,0-2.691,2.694l2,2a1.9,1.9,0,1,0,2.691-2.694Z" transform="translate(-191.599 -19.213)"/></g><g transform="translate(55.166 3.707)"><path class="a" d="M294.977,20.026a1.9,1.9,0,0,0-2.692,0L290.3,22.011A1.9,1.9,0,1,0,293,24.7l1.982-1.984A1.9,1.9,0,0,0,294.977,20.026Z" transform="translate(-289.746 -19.469)"/></g></g></svg>