<svg xmlns="http://www.w3.org/2000/svg" width="72.534" height="96.766" viewBox="0 0 72.534 96.766"><defs><style>.a{fill:#336a23;}</style></defs><g transform="translate(-64.106 0)"><path class="a" d="M131.673,145.9a17.273,17.273,0,0,0-10.618-5.122l1.538-13.422a3.307,3.307,0,0,0-3.286-3.684H94.683V123.2a5.2,5.2,0,0,0-5.2-5.2h-7.56a5.2,5.2,0,0,0-5.2,5.2v.472H67.414a3.307,3.307,0,0,0-3.286,3.684l6.743,58.83a7.085,7.085,0,0,0,7.041,6.28H99.239a1.417,1.417,0,0,0,0-2.835H77.912a4.251,4.251,0,0,1-4.225-3.768l-6.743-58.83a.473.473,0,0,1,.469-.526h9.315v2.835H75.69a3.311,3.311,0,0,0-3.307,3.307v1.89a3.311,3.311,0,0,0,3.307,3.307h4.725a3.311,3.311,0,0,0,3.307-3.307v-1.89a3.311,3.311,0,0,0-3.307-3.307h-.85v-2.835H91.849V154.1H88.538a3.3,3.3,0,0,0-3.289,2.954l-1.484,13.8a3.308,3.308,0,0,0,3.289,3.661H99.667a3.308,3.308,0,0,0,3.289-3.661l-1.484-13.8a3.3,3.3,0,0,0-3.288-2.954h-3.5V143.515H111.74a.472.472,0,0,1,.469.528l-4.038,34.247H78.549l-4.038-34.247a.472.472,0,0,1,.469-.528H86.651a1.417,1.417,0,0,0,0-2.835H74.98a3.307,3.307,0,0,0-3.285,3.695l4.756,40.335A2.363,2.363,0,0,0,78.8,186.8h29.126a2.363,2.363,0,0,0,2.346-2.086l4.756-40.334a3.307,3.307,0,0,0-3.285-3.695H94.684V126.506h24.624a.473.473,0,0,1,.469.526l-6.743,58.83a4.251,4.251,0,0,1-4.225,3.768h-2.955a1.417,1.417,0,1,0,0,2.835h2.955a7.085,7.085,0,0,0,7.041-6.28l1.035-9.028h2.368a17.407,17.407,0,0,0,17.388-17.388v-1.7a17.29,17.29,0,0,0-4.968-12.168ZM80.887,132.648v1.89a.473.473,0,0,1-.472.472H75.689a.473.473,0,0,1-.472-.472v-1.89a.473.473,0,0,1,.472-.473h4.725A.473.473,0,0,1,80.887,132.648Zm17.766,24.708,1.484,13.8a.473.473,0,0,1-.47.523H87.054a.473.473,0,0,1-.47-.523l1.484-13.8a.472.472,0,0,1,.47-.422h9.645a.472.472,0,0,1,.47.422Zm-19.435,26.6-.334-2.835h28.955l-.334,2.835Zm.346-60.29V123.2a2.365,2.365,0,0,1,2.362-2.362h7.56a2.365,2.365,0,0,1,2.362,2.362v.472ZM120.078,149.3a8.932,8.932,0,0,1,7.49,8.771v1.7a8.893,8.893,0,0,1-8.883,8.883h-.826Zm13.727,10.472a14.569,14.569,0,0,1-14.553,14.553H117.21l.325-2.835h1.151A11.731,11.731,0,0,0,130.4,159.769v-1.7a11.715,11.715,0,0,0-10-11.59l.33-2.883a14.64,14.64,0,0,1,13.074,14.473Z" transform="translate(0 -95.699)"/><path class="a" d="M199.053,10.461l2.781,1.766a1.416,1.416,0,0,1,.15,2.281l-3.607,3.022A1.417,1.417,0,1,0,200.2,19.7l3.607-3.022a4.251,4.251,0,0,0-.451-6.848l-2.781-1.766a1.416,1.416,0,0,1-.15-2.281l3.916-3.281A1.418,1.418,0,1,0,202.518.332L198.6,3.613a4.251,4.251,0,0,0,.451,6.848Z" transform="translate(-107.843 -0.001)"/><path class="a" d="M265.03,10.46l2.781,1.766a1.416,1.416,0,0,1,.15,2.281l-3.607,3.022a1.417,1.417,0,0,0,1.821,2.173l3.607-3.022a4.251,4.251,0,0,0-.451-6.848L266.55,8.067a1.416,1.416,0,0,1-.15-2.281L270.316,2.5A1.418,1.418,0,1,0,268.495.331l-3.916,3.281a4.252,4.252,0,0,0,.451,6.848Z" transform="translate(-161.35 0)"/><path class="a" d="M133.076,10.461l2.781,1.766a1.416,1.416,0,0,1,.15,2.281L132.4,17.53A1.417,1.417,0,0,0,134.22,19.7l3.607-3.022a4.251,4.251,0,0,0-.451-6.848L134.6,8.068a1.416,1.416,0,0,1-.15-2.281l3.916-3.281a1.417,1.417,0,0,0-1.82-2.173l-3.916,3.281a4.252,4.252,0,0,0,.451,6.848Z" transform="translate(-54.335 -0.001)"/></g></svg>