<svg xmlns="http://www.w3.org/2000/svg" width="103.887" height="84.78" viewBox="0 0 103.887 84.78"><defs><style>.a{fill:#336a23;}</style></defs><g transform="translate(0 -11.237)"><path class="a" d="M1.037,24.764H6.792a15.426,15.426,0,0,0,1.461,3.515L4.18,32.35a1.038,1.038,0,0,0,0,1.468l4.4,4.4a1.038,1.038,0,0,0,1.467,0l4.073-4.074a15.416,15.416,0,0,0,3.513,1.461V41.36A1.037,1.037,0,0,0,18.671,42.4h6.224a1.037,1.037,0,0,0,1.037-1.037V35.606a15.416,15.416,0,0,0,3.513-1.461l4.073,4.074a1.068,1.068,0,0,0,1.467,0l4.4-4.4a1.038,1.038,0,0,0,0-1.468l-4.074-4.071a15.426,15.426,0,0,0,1.461-3.515h5.754a1.037,1.037,0,0,0,1.037-1.037V17.5a1.037,1.037,0,0,0-1.037-1.037H36.774a15.431,15.431,0,0,0-1.461-3.514L39.386,8.88a1.038,1.038,0,0,0,0-1.468l-4.4-4.4a1.038,1.038,0,0,0-1.467,0L29.445,7.085a15.46,15.46,0,0,0-3.513-1.461V-.131a1.037,1.037,0,0,0-1.037-1.037H18.671A1.037,1.037,0,0,0,17.634-.131V5.624A15.46,15.46,0,0,0,14.12,7.085L10.047,3.011a1.068,1.068,0,0,0-1.467,0l-4.4,4.4a1.038,1.038,0,0,0,0,1.468l4.074,4.071a15.431,15.431,0,0,0-1.461,3.514H1.037A1.037,1.037,0,0,0,0,17.5v6.224A1.037,1.037,0,0,0,1.037,24.764ZM2.075,18.54H7.6a1.037,1.037,0,0,0,1.013-.815,13.345,13.345,0,0,1,1.817-4.371,1.038,1.038,0,0,0-.14-1.293L6.379,8.146,9.314,5.211l3.914,3.915a1.038,1.038,0,0,0,1.295.141,13.366,13.366,0,0,1,4.371-1.817,1.038,1.038,0,0,0,.815-1.014V.907h4.149V6.435a1.038,1.038,0,0,0,.815,1.014,13.366,13.366,0,0,1,4.371,1.817,1.038,1.038,0,0,0,1.295-.141l3.914-3.915,2.934,2.935-3.914,3.913a1.038,1.038,0,0,0-.14,1.295,13.342,13.342,0,0,1,1.816,4.372,1.038,1.038,0,0,0,1.013.816h5.53v4.149h-5.53a1.038,1.038,0,0,0-1.013.815,13.329,13.329,0,0,1-1.816,4.37,1.038,1.038,0,0,0,.14,1.294l3.915,3.914-2.934,2.936L30.338,32.1a1.038,1.038,0,0,0-1.295-.14,13.335,13.335,0,0,1-4.37,1.817,1.037,1.037,0,0,0-.816,1.013v5.529H19.708V34.794a1.037,1.037,0,0,0-.816-1.013,13.335,13.335,0,0,1-4.37-1.817,1.038,1.038,0,0,0-1.295.14L9.314,36.019,6.38,33.084l3.914-3.914a1.038,1.038,0,0,0,.14-1.295A13.349,13.349,0,0,1,8.617,23.5,1.037,1.037,0,0,0,7.6,22.689H2.075Zm0,0" transform="translate(1.405 12.405)"/><path class="a" d="M138.3,145.428a8.3,8.3,0,1,0-8.3-8.3A8.3,8.3,0,0,0,138.3,145.428Zm0-14.522a6.224,6.224,0,1,1-6.224,6.224A6.224,6.224,0,0,1,138.3,130.907Zm0,0" transform="translate(-115.111 -104.111)"/><path class="a" d="M111.41,121.652A11.41,11.41,0,1,0,100,110.242,11.41,11.41,0,0,0,111.41,121.652Zm0-20.746a9.335,9.335,0,1,1-9.336,9.335A9.335,9.335,0,0,1,111.41,100.907Zm0,0" transform="translate(-88.222 -77.222)"/><path class="a" d="M95.509,308.993c-21.1-.183-17.6-.214-33.512,0H8.378A8.388,8.388,0,0,0,0,317.371v3.351A8.387,8.387,0,0,0,8.378,329.1H95.509a8.387,8.387,0,0,0,8.378-8.378v-3.351A8.388,8.388,0,0,0,95.509,308.993Zm5.027,11.729a5.027,5.027,0,0,1-5.027,5.027H8.378a5.027,5.027,0,0,1-5.027-5.027v-3.351a5.027,5.027,0,0,1,5.027-5.027H95.509a5.027,5.027,0,0,1,5.027,5.027Zm0,0" transform="translate(0 -233.083)"/><path class="a" d="M285.027,488.832a5.027,5.027,0,1,0,5.027,5.027A5.027,5.027,0,0,0,285.027,488.832Zm0,6.7a1.676,1.676,0,1,1,1.676-1.676A1.675,1.675,0,0,1,285.027,495.534Zm0,0" transform="translate(-233.083 -407.895)"/><path class="a" d="M185.027,488.832a5.027,5.027,0,1,0,5.027,5.027A5.027,5.027,0,0,0,185.027,488.832Zm0,6.7a1.676,1.676,0,1,1,1.676-1.676A1.675,1.675,0,0,1,185.027,495.534Zm0,0" transform="translate(-149.839 -407.895)"/><path class="a" d="M385.027,488.832a5.027,5.027,0,1,0,5.027,5.027A5.027,5.027,0,0,0,385.027,488.832Zm0,6.7a1.676,1.676,0,1,1,1.676-1.676A1.675,1.675,0,0,1,385.027,495.534Zm0,0" transform="translate(-316.327 -407.895)"/><path class="a" d="M85.027,488.832a5.027,5.027,0,1,0,5.027,5.027A5.027,5.027,0,0,0,85.027,488.832Zm0,6.7a1.676,1.676,0,1,1,1.676-1.676A1.675,1.675,0,0,1,85.027,495.534Zm0,0" transform="translate(-66.595 -407.895)"/><path class="a" d="M485.027,488.832a5.027,5.027,0,1,0,5.027,5.027A5.027,5.027,0,0,0,485.027,488.832Zm0,6.7a1.676,1.676,0,1,1,1.676-1.676A1.675,1.675,0,0,1,485.027,495.534Zm0,0" transform="translate(-399.571 -407.895)"/><g transform="translate(51.471 24.638)"><path class="a" d="M42.771,253.179l-.005-.017a.855.855,0,0,0-.562-.609,14.868,14.868,0,0,0-5.282-.513,16.738,16.738,0,0,0-10.78,5.059,17.272,17.272,0,0,0-4.243,6.723,17.273,17.273,0,0,0-4.244-6.723,16.736,16.736,0,0,0-10.78-5.059,14.872,14.872,0,0,0-5.282.513.856.856,0,0,0-.562.609l0,.017A16.385,16.385,0,0,0,5.6,269.159a16.735,16.735,0,0,0,10.78,5.059c.4.028.793.041,1.163.041a14.149,14.149,0,0,0,4.119-.554.851.851,0,0,0,.24-.126.863.863,0,0,0,.24.126,14.153,14.153,0,0,0,4.119.554c.37,0,.758-.012,1.163-.041a16.734,16.734,0,0,0,10.78-5.059A16.385,16.385,0,0,0,42.771,253.179Zm-5.8.575a14.707,14.707,0,0,1,3.251.116L33.487,260.6v-6.161A14.588,14.588,0,0,1,36.969,253.754Zm-9.616,4.557a16.088,16.088,0,0,1,4.422-3.18v7.184l-8.862,8.862A14.873,14.873,0,0,1,27.353,258.311ZM21,267.927a14.75,14.75,0,0,1-.116,3.251l-8.863-8.863v-7.184a16.083,16.083,0,0,1,4.422,3.18A14.911,14.911,0,0,1,21,267.927ZM6.828,253.754a14.589,14.589,0,0,1,3.482.688V260.6L3.576,253.87A14.712,14.712,0,0,1,6.828,253.754Zm-4.459,1.329,11.043,11.043H5.39a.874.874,0,0,0-.16.015A14.586,14.586,0,0,1,2.369,255.083Zm4.438,12.865c-.037-.036-.072-.073-.108-.11h8.424l4.55,4.55A14.874,14.874,0,0,1,6.807,267.948ZM27.374,272.5a14.728,14.728,0,0,1-3.251-.116l4.551-4.551H37.1c-.036.036-.071.073-.108.11A14.912,14.912,0,0,1,27.374,272.5Zm11.192-6.363a.871.871,0,0,0-.16-.015H30.385l11.043-11.043A14.587,14.587,0,0,1,38.566,266.141Zm0,0" transform="translate(0 -230.427)"/><path class="a" d="M167.606,26.333a.855.855,0,0,0,.767,0,13.4,13.4,0,0,0,3.695-3.039,15.064,15.064,0,0,0,3.642-10.082A14.755,14.755,0,0,0,168.445.129l-.012-.006a.855.855,0,0,0-.826-.032,13.406,13.406,0,0,0-3.695,3.039,15.067,15.067,0,0,0-3.642,10.082,15.066,15.066,0,0,0,3.642,10.082A13.414,13.414,0,0,0,167.606,26.333Zm3.217-4.218a13.09,13.09,0,0,1-1.977,1.868V18.443L174,13.291A13.243,13.243,0,0,1,170.824,22.116ZM165.157,4.308a12.721,12.721,0,0,1,2.83-2.461,12.938,12.938,0,0,1,5.86,9.184.893.893,0,0,0-.078.069l-4.922,4.922v-3.39h0V8.353a.856.856,0,0,0-1.712,0v2.211l-3.7-3.7A12.974,12.974,0,0,1,165.157,4.308Zm-2.441,4.259,4.418,4.418v5.1h0v5.895a13.224,13.224,0,0,1-5.153-10.771A14.363,14.363,0,0,1,162.716,8.567Zm0,0" transform="translate(-146.092)"/><path class="a" d="M241.313,49.29a.856.856,0,1,0-.605-.251A.861.861,0,0,0,241.313,49.29Zm0,0" transform="translate(-219.415 -43.505)"/></g></g></svg>