<svg xmlns="http://www.w3.org/2000/svg" width="100.26" height="100.358" viewBox="0 0 100.26 100.358"><defs><style>.a{fill:#336a23;}</style></defs><path class="a" d="M165.136,240.979a12.071,12.071,0,0,0-2-.167h-6.412v-4.09a13.731,13.731,0,0,0,6.131-11.431v-7.357a13.708,13.708,0,0,0-2.013-7.162l-2.51,1.537a10.768,10.768,0,0,1,1.58,5.625v1.543l-.387-.714a6.721,6.721,0,0,0-5.917-3.527H144.63a6.721,6.721,0,0,0-5.917,3.527l-.386.714v-1.543a10.791,10.791,0,0,1,18.4-7.653l2.075-2.087a13.734,13.734,0,0,0-23.417,9.74v7.357a13.731,13.731,0,0,0,6.131,11.431v4.09H135.1a12,12,0,0,0-11.982,11.983v11.737h2.943V252.795a9.049,9.049,0,0,1,9.039-9.039h6.525a7.6,7.6,0,0,0,14.98,0h6.525a9.085,9.085,0,0,1,1.514.126Zm-11.358,1.48a4.66,4.66,0,1,1-9.32,0V238.21a13.734,13.734,0,0,0,9.32,0Zm-4.66-6.376a10.8,10.8,0,0,1-10.782-10.435l2.966-5.484a3.78,3.78,0,0,1,3.328-1.984h8.976a3.78,3.78,0,0,1,3.328,1.984l2.966,5.484A10.8,10.8,0,0,1,149.118,236.082Zm0,0" transform="translate(-98.988 -164.174)"/><path class="a" d="M348.5,397.012l-1.276,2.652a9.1,9.1,0,0,1,5.124,8.151v11.737h2.943V407.814A12.054,12.054,0,0,0,348.5,397.012Zm0,0" transform="translate(-279.163 -319.193)"/><path class="a" d="M328.32,475.965h2.943v7.063H328.32Zm0,0" transform="translate(-263.966 -382.67)"/><path class="a" d="M168.164,475.965h2.943v7.063h-2.943Zm0,0" transform="translate(-135.202 -382.67)"/><path class="a" d="M73.854,42.483l-3.4-6.893-3.4,6.893-7.608,1.106,5.505,5.367-1.3,7.577,6.8-3.577,6.8,3.577-1.3-7.577,5.505-5.367Zm-.507,8.67-2.9-1.523-2.9,1.523.553-3.225-2.343-2.284L69,45.174l1.448-2.934L71.9,45.174l3.238.47-2.343,2.284Zm0,0" transform="translate(-47.79 -28.614)"/><path class="a" d="M219,42.48l-3.4-6.894-3.4,6.894-7.608,1.106,5.505,5.367-1.3,7.577,6.8-3.577,6.805,3.577-1.3-7.578,5.505-5.366Zm-.506,8.67-2.9-1.523-2.9,1.523.553-3.225-2.343-2.284,3.238-.47,1.448-2.934,1.448,2.934,3.238.47-2.343,2.284Zm0,0" transform="translate(-164.482 -28.611)"/><path class="a" d="M350.725,35.586l-3.4,6.894-7.608,1.106,5.505,5.366-1.3,7.578,6.8-3.577,6.805,3.577-1.3-7.578,5.505-5.366-7.608-1.106Zm2.9,15.564-2.9-1.523-2.9,1.523.554-3.225-2.343-2.284,3.238-.47,1.448-2.934,1.448,2.934,3.238.47-2.343,2.284Zm0,0" transform="translate(-273.127 -28.611)"/><path class="a" d="M94.864,0H76.794V2.943H94.864A2.455,2.455,0,0,1,97.317,5.4V30.9a2.456,2.456,0,0,1-2.452,2.453H28.057v10.4l-14.739-10.4H5.4A2.456,2.456,0,0,1,2.943,30.9V18.084H0V30.9a5.4,5.4,0,0,0,5.4,5.4h6.989L31,49.439V36.3H94.864a5.4,5.4,0,0,0,5.4-5.4V5.4A5.4,5.4,0,0,0,94.864,0Zm0,0"/><path class="a" d="M2.943,5.4A2.455,2.455,0,0,1,5.4,2.943H73.851V0H5.4A5.4,5.4,0,0,0,0,5.4v9.745H2.943Zm0,0"/><path class="a" d="M153.148,427.116h2.943a3.157,3.157,0,0,1,3.153-3.154V421.02A6.1,6.1,0,0,0,153.148,427.116Zm0,0" transform="translate(-123.13 -338.495)"/><path class="a" d="M450.291,37.389V30.031h-7.357v2.942h4.414v4.415Zm0,0" transform="translate(-356.113 -24.145)"/><path class="a" d="M30.031,116.613v7.358h7.357v-2.943H32.974v-4.415Zm0,0" transform="translate(-24.145 -93.756)"/><path class="a" d="M218.215,478.469h2.942v2.942h-2.942Zm0,0" transform="translate(-175.442 -384.683)"/><path class="a" d="M248.242,478.469h2.943v2.942h-2.943Zm0,0" transform="translate(-199.584 -384.683)"/><path class="a" d="M278.273,478.469h2.942v2.942h-2.942Zm0,0" transform="translate(-223.729 -384.683)"/></svg>